<svg width="105" height="52" viewBox="0 0 105 52" fill="none" xmlns="http://www.w3.org/2000/svg">
<path fill-rule="evenodd" clip-rule="evenodd" d="M104.174 51.0026H103.22C102.694 51.0026 102.339 51.0026 101.926 50.9642C100.93 50.8726 100.462 50.465 99.6569 49.8316C98.8127 49.1442 94.8395 44.8937 93.9386 43.7986L93.7633 43.6041C93.7633 43.6041 97.6325 39.6937 98.3045 38.9698C98.8316 38.4311 99.3188 37.9496 99.3188 37.6324C99.3188 37.4098 99.2264 37.2996 99.0763 37.2434L98.9083 37.0937C98.9083 37.0011 99.0007 36.9658 99.133 36.9658C99.5047 36.9658 100.088 37.0209 100.538 37.0209C100.632 37.0209 101.867 36.9658 102.339 36.9658C102.544 36.9658 102.62 37.0011 102.62 37.0937C102.62 37.1873 102.582 37.2237 102.432 37.2237C102.151 37.2237 101.756 37.3183 101.382 37.4837C100.615 37.8186 100.201 38.2824 99.3577 39.0801C98.8883 39.5273 95.6281 42.6837 95.2322 43.1475C95.7205 43.6873 99.6191 47.6788 100.389 48.3839C101.963 49.8316 102.283 50.1301 103.182 50.5024C103.67 50.7062 104.213 50.7426 104.343 50.7426C104.473 50.7426 104.587 50.779 104.587 50.8539C104.587 50.9475 104.493 51.0026 104.174 51.0026ZM95.06 50.7426L95.228 50.8539C95.228 50.9642 95.1157 51.0026 94.7776 51.0026H93.4451C92.3983 51.0026 91.9289 50.9101 91.4407 50.649C90.6353 50.2226 89.9791 49.3116 88.9102 47.919C88.1227 46.8988 87.2417 45.6539 86.8679 45.1714C86.7913 45.0975 86.7356 45.0611 86.6222 45.0611L84.3164 45.0247L84.1852 45.1714V45.6186C84.1852 47.399 84.1852 48.8675 84.2786 49.6475C84.3353 50.1862 84.4477 50.595 85.0105 50.6688C85.274 50.7062 85.6856 50.7426 85.8547 50.7426C85.967 50.7426 86.0069 50.7978 86.0069 50.8539C86.0069 50.9475 85.9124 51.0026 85.7045 51.0026C84.6734 51.0026 83.4922 50.9475 83.3977 50.9475C83.3819 50.9475 82.1996 51.0026 81.6358 51.0026C81.431 51.0026 81.3365 50.9642 81.3365 50.8539C81.3365 50.7978 81.3733 50.7426 81.4877 50.7426C81.6557 50.7426 81.8815 50.7062 82.0474 50.6688C82.4233 50.595 82.5167 50.1862 82.5934 49.6475C82.6858 48.8675 82.6858 47.399 82.6858 45.6186V42.3478C82.6858 39.4534 82.6858 38.9334 82.6501 38.3386C82.6123 37.7083 82.4611 37.4098 81.8437 37.2798C81.6925 37.2434 81.3733 37.2237 81.2042 37.2237L81.0572 37.1145C81.0572 37.0011 81.1486 36.9658 81.3554 36.9658C82.1996 36.9658 83.3819 37.0209 83.4733 37.0209C83.6791 37.0209 85.105 36.9658 85.6856 36.9658C86.8679 36.9658 88.1227 37.076 89.117 37.7811C89.5853 38.115 90.4106 39.026 90.4106 40.3062C90.4106 41.6811 89.83 43.055 88.1426 44.5973C89.6788 46.5462 90.9545 48.1978 92.0413 49.3501C93.0535 50.4067 93.8588 50.6116 94.3292 50.6854C94.6841 50.7426 94.9466 50.7426 95.06 50.7426ZM88.8356 41.2724C88.8356 38.9511 87.5977 37.5596 85.5922 37.5596C85.0294 37.5596 84.5233 37.6147 84.3353 37.6709C84.2419 37.7083 84.1852 37.7811 84.1852 37.8934V43.965L84.3164 44.1875C84.5999 44.356 85.4599 44.485 86.2862 44.485C86.7356 44.485 87.2606 44.4288 87.6911 44.1324C88.3474 43.6873 88.8356 42.6837 88.8356 41.2724ZM71.8645 51.2626C66.7279 51.2626 64.5901 47.3065 64.5901 43.965C64.5901 40.9583 66.8035 36.7026 71.9768 36.7026C76.1957 36.7026 79.3447 39.3411 79.3447 43.6675C79.3447 47.8265 76.3816 51.2626 71.8645 51.2626ZM71.8466 37.336C68.7155 37.336 66.3698 39.3796 66.3698 43.445C66.3698 47.7714 68.9948 50.5575 72.3706 50.5575C74.0569 50.5575 77.5439 49.5924 77.5439 44.1875C77.5439 39.7301 74.8076 37.336 71.8466 37.336ZM63.3248 6.74753L63.1768 7.45265L62.7851 6.84321L62.6119 6.89313L62.7001 7.32577L62.174 6.92017C62.174 6.92017 62.0848 6.87441 62.0039 6.87441C61.9378 6.87441 61.8779 6.90457 61.8779 7.01481C61.8779 7.25713 62.2948 11.363 62.2948 11.363L61.9997 11.413L62.1982 12.9917L61.9504 13.0395L61.9514 13.4046C61.9514 13.4046 62.2895 15.6447 62.2706 15.6447C62.2706 15.6447 62.2696 15.6437 62.2685 15.6406L61.774 15.1705C61.774 15.1705 61.963 15.5979 61.9997 16.0763C62.0428 16.6213 61.9504 17.4616 61.9504 17.4616C61.9504 17.4616 61.8401 17.0456 61.7456 17.0456C61.7414 17.0456 61.7362 17.0477 61.7309 17.0498C61.6322 17.0976 61.6564 18.8708 61.6564 18.8708C61.6564 18.8708 61.4726 18.6576 61.3823 18.6576C61.3603 18.6576 61.3435 18.6701 61.3361 18.7013C61.3193 18.7897 61.3498 20.9248 60.6767 21.763L60.6263 20.8052C60.6263 20.8052 60.5329 20.7584 60.4615 20.7584C60.4226 20.7584 60.3901 20.7719 60.3817 20.8156C60.3554 20.9362 60.5203 21.5124 60.3985 21.8286C60.2746 22.1437 59.9396 22.8571 59.9396 22.8571C59.9396 22.8571 60.0173 22.0137 59.9186 21.9658C59.8703 21.9419 59.8273 21.8972 59.7895 21.8972C59.7517 21.8972 59.7191 21.943 59.6939 22.1031C59.6446 22.4193 59.4304 23.5851 59.2036 23.8274L59.1038 23.3199C59.1038 23.3199 59.0555 23.2097 59.0009 23.2097C58.9694 23.2097 58.9358 23.2482 58.9096 23.3657C58.8592 23.5851 58.5893 24.8498 58.394 25.1649C58.3562 25.2242 58.3279 25.2481 58.3069 25.2481C58.2145 25.2481 58.247 24.7998 58.247 24.7998C58.247 24.7998 58.2082 24.7655 58.1588 24.7655C58.0906 24.7655 58.0045 24.83 57.9772 25.1399C57.9268 25.6755 57.7073 26.5959 57.5089 26.8414C57.4774 26.8809 57.4532 26.8965 57.4343 26.8965C57.3367 26.8965 57.3881 26.4524 57.3881 26.4524L57.1676 26.5252C57.1676 26.5252 56.8474 26.9142 56.8474 27.7628C56.8474 28.6146 56.9965 28.808 57.0941 29.0046C57.1918 29.197 57.4385 29.7097 57.4385 29.7097C57.4385 29.7097 57.1046 29.224 56.9639 29.224C56.9471 29.224 56.9324 29.2302 56.9219 29.2458C56.8232 29.3925 56.9219 30.1215 56.9219 30.1215L57.5215 31.0149H55.5979V30.1454C55.5979 30.1454 55.5979 29.8532 55.8184 29.6587C56.0389 29.4653 56.0872 29.3925 55.9906 29.2708C55.9549 29.2271 55.8919 29.199 55.8184 29.199C55.6882 29.199 55.5286 29.2885 55.4498 29.5381C55.4236 29.6234 55.4026 29.6598 55.3879 29.6598C55.3354 29.6598 55.3595 29.199 55.474 28.8579C55.622 28.4201 55.7438 28.2266 55.5979 28.106C55.517 28.0384 55.4362 27.9573 55.3637 27.9573C55.3039 27.9573 55.2503 28.0124 55.2062 28.1767C55.1075 28.5418 55.181 28.9796 55.181 28.9796C55.181 28.9796 54.8618 28.9796 54.9101 28.0072C54.9605 27.0358 54.9101 26.7925 55.0088 26.4014C55.1075 26.0146 54.6392 25.869 54.6392 25.869C54.6392 25.869 54.445 26.8653 54.3715 27.1814C54.2969 27.4976 54.2476 28.808 54.6392 29.2947C54.8104 29.5069 54.7915 29.5662 54.7148 29.5662C54.6161 29.5662 54.4208 29.4653 54.4208 29.4653L54.2234 29.0514L54.2108 29.4549L54.9794 31.0149H53.1493C53.1692 30.887 53.2543 30.3794 53.3404 30.1454C53.438 29.8782 53.438 29.588 53.438 29.588L53.1944 29.6338L52.9981 30.3649C52.9981 30.3649 52.9981 29.6338 52.9487 29.3197C52.8983 29.0046 52.4342 27.6422 52.4342 27.6422L52.3681 27.6682L51.9659 28.523C51.9659 28.523 52.114 27.9063 52.1003 27.3822C52.0835 26.857 52.5497 26.4794 52.5991 25.9938C52.6474 25.5091 52.4563 24.8955 52.4563 24.8955C52.4563 24.8955 52.1623 25.1399 52.0163 25.6256C51.8693 26.1113 51.82 26.209 51.82 26.209L51.6971 25.3105C51.6971 25.3105 51.6698 25.3011 51.6299 25.3011C51.5638 25.3011 51.464 25.3292 51.4031 25.48C51.3044 25.7234 51.2561 25.9906 51.2299 26.1113C51.2257 26.1362 51.2057 26.1477 51.1753 26.1477C51.0514 26.1477 50.7637 25.9553 50.7448 25.6433C50.7248 25.3365 50.6723 25.245 50.603 25.245C50.5841 25.245 50.5642 25.2512 50.5432 25.2616C50.4455 25.3105 50.3983 25.2398 50.3479 25.5289C50.2544 26.0801 49.9121 26.3713 49.9121 26.3713C49.9121 26.3713 49.9373 25.7878 49.6664 25.4977C49.3966 25.2054 49.4501 25.1586 49.4501 25.1586L48.9734 24.9215C48.9734 24.9215 48.6794 25.4311 48.3613 25.5767C48.1072 25.6922 48.0085 25.793 47.956 25.8898C47.9665 25.793 47.9455 25.6318 47.8216 25.4072C47.5517 24.9215 47.2063 24.2653 47.1821 24.023C47.1601 23.7806 47.2063 23.634 47.2063 23.634L47.0719 23.6184C47.0719 23.6184 47.0719 24.5877 46.864 24.752C46.8629 24.753 46.8619 24.753 46.8608 24.753C46.8335 24.753 46.7695 24.5326 46.6897 24.3131C46.6088 24.0926 46.5122 23.8732 46.4198 23.8732C46.4125 23.8732 46.4062 23.8742 46.3988 23.8763C46.2014 23.9491 46.1605 24.0926 46.2844 24.361C46.4062 24.6272 46.6666 24.9683 46.6183 25.4072C46.5952 25.6256 46.571 25.845 46.571 25.845C46.571 25.845 46.3841 25.1701 46.2403 25.1701C46.2266 25.1701 46.214 25.1753 46.2014 25.1878C46.2014 25.1878 46.1279 25.3354 46.1531 25.7483C46.1762 26.1622 46.13 26.4274 46.13 26.5502C46.13 26.5595 46.13 26.5637 46.129 26.5637C46.1248 26.5637 46.0891 25.9646 45.9064 25.9428C45.8056 25.9293 45.7499 25.8783 45.7174 25.8783C45.6859 25.8783 45.6743 25.923 45.6638 26.0884C45.6376 26.4274 45.6638 26.962 45.8339 27.2792C46.0061 27.5943 46.1762 28.08 46.1762 28.08C46.1762 28.08 45.9515 27.8408 45.8276 27.8408C45.7993 27.8408 45.7751 27.8543 45.7615 27.8866C45.6859 28.055 45.8087 28.1289 45.9064 28.2027C46.0061 28.2745 46.0544 28.6884 46.0544 28.6884C46.0544 28.6884 45.835 28.2329 45.6848 28.2329C45.668 28.2329 45.6523 28.2391 45.6376 28.2506C45.4927 28.3722 45.3929 28.4679 45.5399 28.6634C45.6859 28.8579 45.7363 28.9796 45.9809 29.2458C46.2277 29.5131 46.3001 29.9749 46.3001 29.9749L45.92 29.7014C45.92 29.7014 45.7846 29.7097 45.8087 29.8532C45.8308 29.9801 46.2917 30.7954 46.4156 31.0149H44.6968L44.4122 29.951H44.0426C44.0426 29.951 44.1172 28.5418 44.1655 28.2745C44.198 28.0987 44.1823 27.9781 44.1182 27.9781C44.0857 27.9781 44.0395 28.0103 43.9807 28.0852C43.8095 28.3046 43.8274 28.523 43.8274 28.523C43.8274 28.523 43.652 27.9573 43.7728 27.691C43.8956 27.4238 44.3261 26.6989 43.9418 25.9376C43.8284 25.7109 43.5292 25.48 43.5292 25.48C43.5292 25.48 43.6552 26.1092 42.9895 26.7925C42.7364 27.0525 42.644 27.326 42.6209 27.7399C42.5957 28.1528 43.0777 29.2843 43.0777 29.2843L42.8897 29.3696L43.4147 31.0149H41.6917L41.7137 30.2422C41.7137 30.2422 41.5268 30.2411 41.3441 30.4606C41.342 30.4637 41.3378 30.4658 41.3336 30.4658C41.2801 30.4658 41.1005 30.2598 41.1005 29.7783C41.1005 29.2916 41.1982 28.7851 41.1982 28.7851L40.8517 29.1512C40.8517 29.1512 40.4485 27.9906 40.8517 27.0015C41.0701 26.467 41.173 26.234 41.1488 26.0884C41.1383 26.026 41.0911 25.9948 41.0323 25.9948C40.9525 25.9948 40.8496 26.0499 40.7792 26.1622C40.6585 26.3546 40.5104 26.6708 40.5104 26.6708C40.5104 26.6708 40.2941 25.689 40.9283 24.4837C41.0753 24.2039 41.1289 24.1332 41.1352 24.1259C41.1331 24.128 41.1278 24.1342 41.1194 24.1394C41.11 24.1478 41.0953 24.155 41.0806 24.155C41.0638 24.155 41.0449 24.1467 41.0281 24.1207C41.0081 24.0906 40.9777 24.0781 40.9409 24.0781C40.796 24.0781 40.5556 24.2726 40.4863 24.362C40.2826 24.6293 40.1807 24.933 40.1461 24.933C40.1419 24.933 40.1387 24.9288 40.1366 24.9174C39.7534 23.1306 40.2343 21.3658 40.2343 21.3658L39.6998 22.23C39.5665 20.5577 40.2164 19.4542 40.2164 19.4542C40.2164 19.4542 40.2175 19.4137 40.1566 19.4137C40.1251 19.4137 40.0768 19.4241 40.0033 19.4574C39.829 19.5374 39.5801 20.0314 39.5801 20.0314C39.5801 20.0314 39.4646 18.8978 39.662 18.2374C40.0054 17.0726 41.1247 16.199 41.2717 16.0274C41.4197 15.8579 41.6623 14.3582 43.3958 13.364C44.1056 12.9532 44.7661 12.7806 45.8938 12.7317C45.9505 12.7296 46.0156 12.7286 46.087 12.7286C47.4446 12.7286 51.3727 13.1456 52.6075 13.1674C52.9729 13.1758 53.3141 13.1799 53.6176 13.1799C53.9452 13.1799 54.2276 13.1747 54.445 13.1622C54.7862 13.1414 54.7988 12.9917 55.1023 12.9917C55.1695 12.9917 55.2503 12.999 55.3532 13.0166C55.9171 13.1123 56.1355 13.234 56.2121 13.234C56.2835 13.234 56.3339 12.9917 56.9965 12.6994C57.0899 12.6578 56.3339 10.5373 56.7991 8.32625C57.2674 6.10897 58.1126 4.51049 59.1175 3.51625C59.7443 2.89641 61.0568 1.52985 63.4057 0.736328C63.4057 0.736328 63.3836 1.28337 63.1411 1.56937C62.9017 1.85537 62.9027 1.94481 62.9027 2.26825C62.9027 2.79657 63.1883 2.58649 63.6566 2.79969C64.3223 3.09921 64.6489 3.74193 64.6489 3.77625C64.6489 3.80953 64.6258 3.83137 64.6153 3.99777C64.6027 4.16417 64.7948 4.42001 64.8158 4.46265C64.8389 4.50841 64.8946 4.57497 64.7948 4.58641C64.7927 4.58641 64.7917 4.58641 64.7906 4.58641C64.6814 4.58641 64.1333 4.10905 64.1333 4.10905C64.1333 4.10905 63.9097 4.16417 64.0892 4.36385C64.2688 4.56353 65.2306 5.27489 65.2642 5.37265C65.2967 5.47249 65.5666 6.16097 65.2526 6.72985L63.3248 6.74753ZM42.1967 20.903C42.0203 20.332 41.7053 19.8328 41.6056 19.031C41.489 18.1178 41.5279 17.1694 41.5772 16.9738C41.0501 18.3747 41.0344 19.1246 41.1677 19.7142C41.3294 20.411 41.6476 20.9102 41.762 21.5374C41.7967 21.7318 41.9111 22.1666 41.929 22.6242C41.9143 22.7063 41.9132 22.7375 41.9164 22.7375C41.9206 22.7375 41.9311 22.6866 41.929 22.6242C42.0224 22.3257 42.371 21.4531 42.1967 20.903ZM59.9879 16.4174C59.9879 16.4174 59.9638 17.8506 59.7926 18.0939C59.6215 18.3373 59.5228 18.7502 59.5952 19.2358C59.6656 19.6997 59.8703 20.4308 59.8882 20.4953C59.8714 20.4318 59.6803 19.7049 59.9144 18.823C60.1601 17.8994 60.0373 16.6847 59.9879 16.4174ZM60.724 15.1788C60.9035 16.0971 60.871 18.6295 60.871 18.6295C60.871 18.6295 61.4002 16.796 61.1419 15.5178C60.9193 14.4248 60.1601 13.6958 60.1601 13.6958C60.1601 13.6958 60.6578 14.8418 60.724 15.1788ZM61.018 12.2387C61.4359 12.9667 61.7309 14.4248 61.5566 14.8616C61.5367 14.9136 61.5304 14.9375 61.5346 14.9375C61.5619 14.9375 62.1394 13.5918 61.5335 12.4561C60.9077 11.284 60.893 10.7578 60.934 10.5997C60.8752 10.7796 60.6494 11.5939 61.018 12.2387ZM61.7824 9.55761C61.6354 9.37665 61.3235 8.98041 61.2196 8.71521C61.0001 8.15153 60.9392 7.80625 60.9455 7.71889C60.9466 7.71161 60.9455 7.70849 60.9434 7.70849C60.9161 7.70849 60.7072 8.26801 60.9109 8.76305C61.1314 9.29865 61.5209 9.62417 61.691 10.0121C61.8632 10.401 61.8275 10.8774 61.8275 10.8774L61.9189 10.479C62.026 9.92473 61.8716 9.69697 61.7824 9.55761ZM41.3578 37.0937C41.3578 37.1686 41.2454 37.1873 41.0785 37.2611C40.9262 37.336 40.8328 37.4473 40.8328 37.596C40.8328 37.8186 40.9262 38.0411 41.0785 38.3209C41.3756 38.8575 44.1865 43.6488 44.5267 44.1875C44.8826 43.4075 47.264 39.3411 47.6378 38.7286C47.8825 38.3386 47.957 38.0234 47.957 37.7811C47.957 37.5211 47.8825 37.3183 47.6557 37.2611C47.4887 37.206 47.3764 37.1686 47.3764 37.076C47.3764 37.0011 47.4887 36.9658 47.6756 36.9658C48.1618 36.9658 48.7624 37.0209 48.9115 37.0209C49.0238 37.0209 50.3752 36.9658 50.7322 36.9658C50.8624 36.9658 50.9758 37.0011 50.9758 37.076C50.9758 37.1686 50.8802 37.2237 50.7322 37.2237C50.5264 37.2237 50.1683 37.2996 49.8691 37.4837C49.4932 37.7083 49.2895 37.9309 48.8758 38.4311C48.2563 39.1737 45.6302 43.5386 45.2953 44.3373C45.0139 45.005 45.0139 45.5811 45.0139 46.1926V47.7911C45.0139 48.0865 45.0139 48.8675 45.0706 49.6475C45.1073 50.1862 45.2764 50.595 45.8392 50.6688C46.1006 50.7062 46.5143 50.7426 46.6813 50.7426C46.7947 50.7426 46.8325 50.7978 46.8325 50.8539C46.8325 50.9475 46.738 51.0026 46.5301 51.0026C45.499 51.0026 44.3177 50.9475 44.2274 50.9475C44.1329 50.9475 42.9506 51.0026 42.3889 51.0026C42.181 51.0026 42.0886 50.9642 42.0886 50.8539C42.0886 50.7978 42.1274 50.7426 42.2387 50.7426C42.4088 50.7426 42.6335 50.7062 42.7994 50.6688C43.1764 50.595 43.3465 50.1862 43.3832 49.6475C43.4389 48.8675 43.4389 48.0865 43.4389 47.7911V46.1926C43.4389 45.1911 43.2499 44.7824 43.0073 44.2437C42.875 43.9452 40.3645 39.8611 39.7072 38.896C39.2389 38.2096 38.7695 37.7437 38.4346 37.5211C38.1521 37.336 37.7951 37.2237 37.6261 37.2237L37.4392 37.0937C37.4392 37.0209 37.5169 36.9658 37.6828 36.9658C38.0408 36.9658 39.4457 37.0209 39.5413 37.0209C39.6715 37.0209 40.3823 36.9658 41.1152 36.9658C41.3221 36.9658 41.3578 37.0209 41.3578 37.0937ZM30.1858 51.2626C25.0481 51.2626 22.9103 47.3065 22.9103 43.965C22.9103 40.9583 25.1227 36.7026 30.2971 36.7026C34.516 36.7026 37.666 39.3411 37.666 43.6675C37.666 47.8265 34.7029 51.2626 30.1858 51.2626ZM30.1658 37.336C27.0358 37.336 24.6922 39.3796 24.6922 43.445C24.6922 47.7714 27.3161 50.5575 30.6908 50.5575C32.3782 50.5575 35.8652 49.5924 35.8652 44.1875C35.8652 39.7301 33.1279 37.336 30.1658 37.336ZM23.6674 50.7426L23.8375 50.8539C23.8375 50.9642 23.7241 51.0026 23.3881 51.0026H22.0556C21.0056 51.0026 20.5384 50.9101 20.0512 50.649C19.2437 50.2226 18.5885 49.3116 17.5186 47.919C16.7311 46.8988 15.8501 45.6539 15.4774 45.1714C15.4007 45.0975 15.3461 45.0611 15.2338 45.0611C15.2338 45.0611 13.2577 45.0434 13.0876 45.0247C12.9206 45.007 12.802 44.9925 12.802 44.9925V44.1449L12.8051 44.1314L12.8429 44.121L12.8492 44.122L12.9259 44.1875C13.2083 44.356 14.0704 44.485 14.8957 44.485C15.3461 44.485 15.8722 44.4288 16.2995 44.1324C16.9579 43.6873 17.4451 42.6837 17.4451 41.2724C17.4451 38.9511 16.2071 37.5596 14.2016 37.5596L10.9844 37.5305C10.2788 37.8622 9.86406 38.3178 9.05556 39.0801C8.58726 39.5273 5.32596 42.6837 4.93221 43.1475C5.42151 43.6873 9.31701 47.6788 10.0867 48.3839C11.6627 49.8316 11.9809 50.1301 12.8807 50.5024C13.3679 50.7062 13.9108 50.7426 14.042 50.7426C14.1733 50.7426 14.2867 50.779 14.2867 50.8539C14.2867 50.9475 14.1932 51.0026 13.8751 51.0026H12.9175C12.3925 51.0026 12.0355 51.0026 11.6249 50.9642C10.6316 50.8726 10.1633 50.465 9.35691 49.8316C8.51271 49.1442 4.53846 44.8937 3.63861 43.7986H3.54411V45.6186C3.54411 47.399 3.54411 48.8675 3.63861 49.6475C3.69636 50.1862 3.80556 50.595 4.36941 50.6688C4.63191 50.7062 4.93221 50.7426 5.10021 50.7426C5.21256 50.7426 5.25036 50.7978 5.25036 50.8539C5.25036 50.9475 5.15691 51.0026 4.95006 51.0026C4.03236 51.0026 2.94351 50.9475 2.79546 50.9475C2.64531 50.9475 1.55751 51.0026 0.995763 51.0026C0.787863 51.0026 0.696513 50.9642 0.696513 50.8539C0.696513 50.7978 0.732213 50.7426 0.845613 50.7426C1.01361 50.7426 1.23831 50.7062 1.40736 50.6688C1.78326 50.595 1.87776 50.1862 1.95126 49.6475C2.04576 48.8675 2.04576 47.399 2.04576 45.6186V42.3478C2.04576 39.4534 2.04576 39.9547 2.00796 39.3619C1.96911 38.7317 1.82001 38.4322 1.20261 38.3032C1.05036 38.2668 0.732213 38.2481 0.563163 38.2481L0.414062 38.1368C0.414062 38.0266 0.506463 37.9881 0.714363 37.9881C1.55751 37.9881 2.66316 38.0442 2.77551 38.0442C2.86266 38.0442 3.19026 38.0297 3.56196 38.0151L3.54411 43.4626H3.62076C3.93786 43.1111 7.33146 39.6937 8.00661 38.9698C8.53056 38.4311 9.01881 37.9496 9.01881 37.6324C9.01881 37.4098 8.92536 37.2996 8.77521 37.2434L8.60511 37.0937C8.60511 37.0011 8.70066 36.9658 8.83191 36.9658C9.07446 36.9658 9.40416 36.9876 9.72966 37.0042C10.5014 37.0053 13.811 36.9658 14.2951 36.9658C15.4774 36.9658 16.7311 37.076 17.7265 37.7811C18.1958 38.115 19.019 39.026 19.019 40.3062C19.019 41.6811 18.4394 43.055 16.7521 44.5973C18.2882 46.5462 19.5619 48.1978 20.6497 49.3501C21.6619 50.4067 22.4693 50.6116 22.9355 50.6854C23.2946 50.7426 23.555 50.7426 23.6674 50.7426ZM51.7171 36.9658C52.0751 36.9658 53.4811 37.0209 53.5735 37.0209C53.7058 37.0209 54.4198 36.9658 55.1495 36.9658C55.3564 36.9658 55.3931 37.0209 55.3931 37.0937C55.3931 37.1686 55.2808 37.1873 55.1117 37.2611C54.9616 37.336 54.8681 37.4473 54.8681 37.596C54.8681 37.8186 54.9616 38.0411 55.1117 38.3209C55.4131 38.8575 58.2239 43.6488 58.562 44.1875C58.919 43.4075 61.2983 39.3411 61.6753 38.7286C61.9178 38.3386 61.9913 38.0234 61.9913 37.7811C61.9913 37.5211 61.9178 37.3183 61.6921 37.2611C61.523 37.206 61.4107 37.1686 61.4107 37.076C61.4107 37.0011 61.523 36.9658 61.711 36.9658C62.1982 36.9658 62.7988 37.0209 62.9479 37.0209C63.0613 37.0209 64.4116 36.9658 64.7665 36.9658C64.8967 36.9658 65.0101 37.0011 65.0101 37.076C65.0101 37.1686 64.9177 37.2237 64.7665 37.2237C64.5607 37.2237 64.2058 37.2996 63.9023 37.4837C63.5285 37.7083 63.3227 37.9309 62.9122 38.4311C62.2927 39.1737 59.6677 43.5386 59.3296 44.3373C59.0492 45.005 59.0492 45.5811 59.0492 46.1926V47.7911C59.0492 48.0865 59.0492 48.8675 59.1049 49.6475C59.1416 50.1862 59.3149 50.595 59.8745 50.6688C60.136 50.7062 60.5476 50.7426 60.7177 50.7426C60.829 50.7426 60.8689 50.7978 60.8689 50.8539C60.8689 50.9475 60.7712 51.0026 60.5665 51.0026C59.5385 51.0026 58.3573 50.9475 58.2617 50.9475C58.1693 50.9475 56.987 51.0026 56.4263 51.0026C56.2184 51.0026 56.125 50.9642 56.125 50.8539C56.125 50.7978 56.1628 50.7426 56.2751 50.7426C56.4421 50.7426 56.6678 50.7062 56.8358 50.6688C57.2117 50.595 57.3818 50.1862 57.4175 49.6475C57.4742 48.8675 57.4742 48.0865 57.4742 47.7911V46.1926C57.4742 45.1911 57.2873 44.7824 57.0427 44.2437C56.9125 43.9452 54.3988 39.8611 53.7425 38.896C53.2763 38.2096 52.8059 37.7437 52.4678 37.5211C52.1864 37.336 51.8315 37.2237 51.6635 37.2237L51.4745 37.0937C51.4745 37.0209 51.5491 36.9658 51.7171 36.9658Z" fill="#101010"/>
</svg>
