<svg width="105" height="52" viewBox="0 0 105 52" fill="none" xmlns="http://www.w3.org/2000/svg">
<path fill-rule="evenodd" clip-rule="evenodd" d="M104.174 51.0026H103.219C102.693 51.0026 102.338 51.0026 101.926 50.9642C100.929 50.8726 100.462 50.465 99.6567 49.8316C98.8125 49.1442 94.8393 44.8937 93.9384 43.7986L93.763 43.6041C93.763 43.6041 97.6323 39.6937 98.3043 38.9698C98.8314 38.4311 99.3186 37.9496 99.3186 37.6324C99.3186 37.4098 99.2262 37.2996 99.076 37.2434L98.908 37.0937C98.908 37.0011 99.0004 36.9658 99.1327 36.9658C99.5044 36.9658 100.088 37.0209 100.538 37.0209C100.632 37.0209 101.867 36.9658 102.338 36.9658C102.544 36.9658 102.62 37.0011 102.62 37.0937C102.62 37.1873 102.582 37.2237 102.432 37.2237C102.15 37.2237 101.756 37.3183 101.382 37.4837C100.614 37.8186 100.201 38.2824 99.3574 39.0801C98.8881 39.5273 95.6278 42.6837 95.232 43.1475C95.7202 43.6873 99.6189 47.6788 100.389 48.3839C101.962 49.8316 102.283 50.1301 103.182 50.5024C103.67 50.7062 104.213 50.7426 104.343 50.7426C104.473 50.7426 104.586 50.779 104.586 50.8539C104.586 50.9475 104.493 51.0026 104.174 51.0026ZM95.0598 50.7426L95.2278 50.8539C95.2278 50.9642 95.1154 51.0026 94.7773 51.0026H93.4449C92.398 51.0026 91.9287 50.9101 91.4404 50.649C90.6351 50.2226 89.9788 49.3116 88.9099 47.919C88.1224 46.8988 87.2415 45.6539 86.8677 45.1714C86.791 45.0975 86.7354 45.0611 86.622 45.0611L84.3162 45.0247L84.1849 45.1714V45.6186C84.1849 47.399 84.1849 48.8675 84.2784 49.6475C84.3351 50.1862 84.4474 50.595 85.0102 50.6688C85.2738 50.7062 85.6854 50.7426 85.8544 50.7426C85.9668 50.7426 86.0067 50.7978 86.0067 50.8539C86.0067 50.9475 85.9122 51.0026 85.7043 51.0026C84.6732 51.0026 83.4919 50.9475 83.3974 50.9475C83.3817 50.9475 82.1994 51.0026 81.6355 51.0026C81.4308 51.0026 81.3363 50.9642 81.3363 50.8539C81.3363 50.7978 81.373 50.7426 81.4875 50.7426C81.6555 50.7426 81.8812 50.7062 82.0471 50.6688C82.423 50.595 82.5165 50.1862 82.5931 49.6475C82.6855 48.8675 82.6855 47.399 82.6855 45.6186V42.3478C82.6855 39.4534 82.6855 38.9334 82.6498 38.3386C82.612 37.7083 82.4608 37.4098 81.8434 37.2798C81.6922 37.2434 81.373 37.2237 81.204 37.2237L81.057 37.1145C81.057 37.0011 81.1483 36.9658 81.3552 36.9658C82.1994 36.9658 83.3817 37.0209 83.473 37.0209C83.6788 37.0209 85.1047 36.9658 85.6854 36.9658C86.8677 36.9658 88.1224 37.076 89.1168 37.7811C89.5851 38.115 90.4104 39.026 90.4104 40.3062C90.4104 41.6811 89.8297 43.055 88.1424 44.5973C89.6785 46.5462 90.9543 48.1978 92.041 49.3501C93.0532 50.4067 93.8586 50.6116 94.329 50.6854C94.6839 50.7426 94.9464 50.7426 95.0598 50.7426ZM88.8354 41.2724C88.8354 38.9511 87.5974 37.5596 85.5919 37.5596C85.0291 37.5596 84.523 37.6147 84.3351 37.6709C84.2416 37.7083 84.1849 37.7811 84.1849 37.8934V43.965L84.3162 44.1875C84.5997 44.356 85.4596 44.485 86.286 44.485C86.7354 44.485 87.2604 44.4288 87.6909 44.1324C88.3471 43.6873 88.8354 42.6837 88.8354 41.2724ZM71.8642 51.2626C66.7276 51.2626 64.5898 47.3065 64.5898 43.965C64.5898 40.9583 66.8032 36.7026 71.9766 36.7026C76.1955 36.7026 79.3444 39.3411 79.3444 43.6675C79.3444 47.8265 76.3813 51.2626 71.8642 51.2626ZM71.8464 37.336C68.7153 37.336 66.3696 39.3796 66.3696 43.445C66.3696 47.7714 68.9946 50.5575 72.3703 50.5575C74.0566 50.5575 77.5437 49.5924 77.5437 44.1875C77.5437 39.7301 74.8074 37.336 71.8464 37.336ZM63.3246 6.74753L63.1765 7.45265L62.7849 6.84321L62.6116 6.89313L62.6998 7.32577L62.1738 6.92017C62.1738 6.92017 62.0845 6.87441 62.0037 6.87441C61.9375 6.87441 61.8777 6.90457 61.8777 7.01481C61.8777 7.25713 62.2945 11.363 62.2945 11.363L61.9995 11.413L62.1979 12.9917L61.9501 13.0395L61.9512 13.4046C61.9512 13.4046 62.2893 15.6447 62.2704 15.6447C62.2704 15.6447 62.2693 15.6437 62.2683 15.6406L61.7737 15.1705C61.7737 15.1705 61.9627 15.5979 61.9995 16.0763C62.0425 16.6213 61.9501 17.4616 61.9501 17.4616C61.9501 17.4616 61.8399 17.0456 61.7454 17.0456C61.7412 17.0456 61.7359 17.0477 61.7307 17.0498C61.632 17.0976 61.6561 18.8708 61.6561 18.8708C61.6561 18.8708 61.4724 18.6576 61.3821 18.6576C61.36 18.6576 61.3432 18.6701 61.3359 18.7013C61.3191 18.7897 61.3495 20.9248 60.6765 21.763L60.6261 20.8052C60.6261 20.8052 60.5326 20.7584 60.4612 20.7584C60.4224 20.7584 60.3898 20.7719 60.3814 20.8156C60.3552 20.9362 60.52 21.5124 60.3982 21.8286C60.2743 22.1437 59.9394 22.8571 59.9394 22.8571C59.9394 22.8571 60.0171 22.0137 59.9184 21.9658C59.8701 21.9419 59.827 21.8972 59.7892 21.8972C59.7514 21.8972 59.7189 21.943 59.6937 22.1031C59.6443 22.4193 59.4301 23.5851 59.2033 23.8274L59.1036 23.3199C59.1036 23.3199 59.0553 23.2097 59.0007 23.2097C58.9692 23.2097 58.9356 23.2482 58.9093 23.3657C58.8589 23.5851 58.5891 24.8498 58.3938 25.1649C58.356 25.2242 58.3276 25.2481 58.3066 25.2481C58.2142 25.2481 58.2468 24.7998 58.2468 24.7998C58.2468 24.7998 58.2079 24.7655 58.1586 24.7655C58.0903 24.7655 58.0042 24.83 57.9769 25.1399C57.9265 25.6755 57.7071 26.5959 57.5086 26.8414C57.4771 26.8809 57.453 26.8965 57.4341 26.8965C57.3364 26.8965 57.3879 26.4524 57.3879 26.4524L57.1674 26.5252C57.1674 26.5252 56.8471 26.9142 56.8471 27.7628C56.8471 28.6146 56.9962 28.808 57.0939 29.0046C57.1915 29.197 57.4383 29.7097 57.4383 29.7097C57.4383 29.7097 57.1044 29.224 56.9637 29.224C56.9469 29.224 56.9322 29.2302 56.9217 29.2458C56.823 29.3925 56.9217 30.1215 56.9217 30.1215L57.5212 31.0149H55.5976V30.1454C55.5976 30.1454 55.5976 29.8532 55.8181 29.6587C56.0386 29.4653 56.0869 29.3925 55.9903 29.2708C55.9546 29.2271 55.8916 29.199 55.8181 29.199C55.6879 29.199 55.5283 29.2885 55.4496 29.5381C55.4233 29.6234 55.4023 29.6598 55.3876 29.6598C55.3351 29.6598 55.3593 29.199 55.4737 28.8579C55.6218 28.4201 55.7436 28.2266 55.5976 28.106C55.5168 28.0384 55.4359 27.9573 55.3635 27.9573C55.3036 27.9573 55.2501 28.0124 55.206 28.1767C55.1073 28.5418 55.1808 28.9796 55.1808 28.9796C55.1808 28.9796 54.8616 28.9796 54.9099 28.0072C54.9603 27.0358 54.9099 26.7925 55.0086 26.4014C55.1073 26.0146 54.639 25.869 54.639 25.869C54.639 25.869 54.4447 26.8653 54.3712 27.1814C54.2967 27.4976 54.2473 28.808 54.639 29.2947C54.8101 29.5069 54.7912 29.5662 54.7146 29.5662C54.6159 29.5662 54.4206 29.4653 54.4206 29.4653L54.2232 29.0514L54.2106 29.4549L54.9792 31.0149H53.149C53.169 30.887 53.254 30.3794 53.3401 30.1454C53.4378 29.8782 53.4378 29.588 53.4378 29.588L53.1942 29.6338L52.9978 30.3649C52.9978 30.3649 52.9978 29.6338 52.9485 29.3197C52.8981 29.0046 52.434 27.6422 52.434 27.6422L52.3678 27.6682L51.9657 28.523C51.9657 28.523 52.1137 27.9063 52.1001 27.3822C52.0833 26.857 52.5495 26.4794 52.5988 25.9938C52.6471 25.5091 52.456 24.8955 52.456 24.8955C52.456 24.8955 52.162 25.1399 52.0161 25.6256C51.8691 26.1113 51.8197 26.209 51.8197 26.209L51.6969 25.3105C51.6969 25.3105 51.6696 25.3011 51.6297 25.3011C51.5635 25.3011 51.4638 25.3292 51.4029 25.48C51.3042 25.7234 51.2559 25.9906 51.2296 26.1113C51.2254 26.1362 51.2055 26.1477 51.175 26.1477C51.0511 26.1477 50.7634 25.9553 50.7445 25.6433C50.7246 25.3365 50.6721 25.245 50.6028 25.245C50.5839 25.245 50.5639 25.2512 50.5429 25.2616C50.4453 25.3105 50.398 25.2398 50.3476 25.5289C50.2542 26.0801 49.9119 26.3713 49.9119 26.3713C49.9119 26.3713 49.9371 25.7878 49.6662 25.4977C49.3963 25.2054 49.4499 25.1586 49.4499 25.1586L48.9732 24.9215C48.9732 24.9215 48.6792 25.4311 48.361 25.5767C48.1069 25.6922 48.0082 25.793 47.9557 25.8898C47.9662 25.793 47.9452 25.6318 47.8213 25.4072C47.5515 24.9215 47.206 24.2653 47.1819 24.023C47.1598 23.7806 47.206 23.634 47.206 23.634L47.0716 23.6184C47.0716 23.6184 47.0716 24.5877 46.8637 24.752C46.8627 24.753 46.8616 24.753 46.8606 24.753C46.8333 24.753 46.7692 24.5326 46.6894 24.3131C46.6086 24.0926 46.512 23.8732 46.4196 23.8732C46.4122 23.8732 46.4059 23.8742 46.3986 23.8763C46.2012 23.9491 46.1602 24.0926 46.2841 24.361C46.4059 24.6272 46.6663 24.9683 46.618 25.4072C46.5949 25.6256 46.5708 25.845 46.5708 25.845C46.5708 25.845 46.3839 25.1701 46.24 25.1701C46.2264 25.1701 46.2138 25.1753 46.2012 25.1878C46.2012 25.1878 46.1277 25.3354 46.1529 25.7483C46.176 26.1622 46.1298 26.4274 46.1298 26.5502C46.1298 26.5595 46.1298 26.5637 46.1287 26.5637C46.1245 26.5637 46.0888 25.9646 45.9061 25.9428C45.8053 25.9293 45.7497 25.8783 45.7171 25.8783C45.6856 25.8783 45.6741 25.923 45.6636 26.0884C45.6373 26.4274 45.6636 26.962 45.8337 27.2792C46.0059 27.5943 46.176 28.08 46.176 28.08C46.176 28.08 45.9513 27.8408 45.8274 27.8408C45.799 27.8408 45.7749 27.8543 45.7612 27.8866C45.6856 28.055 45.8085 28.1289 45.9061 28.2027C46.0059 28.2745 46.0542 28.6884 46.0542 28.6884C46.0542 28.6884 45.8347 28.2329 45.6846 28.2329C45.6678 28.2329 45.652 28.2391 45.6373 28.2506C45.4924 28.3722 45.3927 28.4679 45.5397 28.6634C45.6856 28.8579 45.736 28.9796 45.9807 29.2458C46.2274 29.5131 46.2999 29.9749 46.2999 29.9749L45.9198 29.7014C45.9198 29.7014 45.7843 29.7097 45.8085 29.8532C45.8305 29.9801 46.2915 30.7954 46.4154 31.0149H44.6965L44.412 29.951H44.0424C44.0424 29.951 44.1169 28.5418 44.1652 28.2745C44.1978 28.0987 44.182 27.9781 44.118 27.9781C44.0854 27.9781 44.0392 28.0103 43.9804 28.0852C43.8093 28.3046 43.8271 28.523 43.8271 28.523C43.8271 28.523 43.6518 27.9573 43.7725 27.691C43.8954 27.4238 44.3259 26.6989 43.9416 25.9376C43.8282 25.7109 43.5289 25.48 43.5289 25.48C43.5289 25.48 43.6549 26.1092 42.9892 26.7925C42.7362 27.0525 42.6438 27.326 42.6207 27.7399C42.5955 28.1528 43.0774 29.2843 43.0774 29.2843L42.8895 29.3696L43.4145 31.0149H41.6914L41.7135 30.2422C41.7135 30.2422 41.5266 30.2411 41.3439 30.4606C41.3418 30.4637 41.3376 30.4658 41.3334 30.4658C41.2798 30.4658 41.1003 30.2598 41.1003 29.7783C41.1003 29.2916 41.1979 28.7851 41.1979 28.7851L40.8514 29.1512C40.8514 29.1512 40.4482 27.9906 40.8514 27.0015C41.0698 26.467 41.1727 26.234 41.1486 26.0884C41.1381 26.026 41.0908 25.9948 41.032 25.9948C40.9522 25.9948 40.8493 26.0499 40.779 26.1622C40.6582 26.3546 40.5102 26.6708 40.5102 26.6708C40.5102 26.6708 40.2939 25.689 40.9281 24.4837C41.0751 24.2039 41.1286 24.1332 41.1349 24.1259C41.1328 24.128 41.1276 24.1342 41.1192 24.1394C41.1097 24.1478 41.095 24.155 41.0803 24.155C41.0635 24.155 41.0446 24.1467 41.0278 24.1207C41.0079 24.0906 40.9774 24.0781 40.9407 24.0781C40.7958 24.0781 40.5553 24.2726 40.486 24.362C40.2823 24.6293 40.1805 24.933 40.1458 24.933C40.1416 24.933 40.1385 24.9288 40.1364 24.9174C39.7531 23.1306 40.234 21.3658 40.234 21.3658L39.6996 22.23C39.5662 20.5577 40.2162 19.4542 40.2162 19.4542C40.2162 19.4542 40.2172 19.4137 40.1563 19.4137C40.1248 19.4137 40.0765 19.4241 40.003 19.4574C39.8287 19.5374 39.5799 20.0314 39.5799 20.0314C39.5799 20.0314 39.4644 18.8978 39.6618 18.2374C40.0051 17.0726 41.1244 16.199 41.2714 16.0274C41.4195 15.8579 41.662 14.3582 43.3956 13.364C44.1054 12.9532 44.7658 12.7806 45.8935 12.7317C45.9502 12.7296 46.0153 12.7286 46.0867 12.7286C47.4444 12.7286 51.3724 13.1456 52.6072 13.1674C52.9726 13.1758 53.3139 13.1799 53.6173 13.1799C53.9449 13.1799 54.2274 13.1747 54.4447 13.1622C54.786 13.1414 54.7986 12.9917 55.102 12.9917C55.1692 12.9917 55.2501 12.999 55.353 13.0166C55.9168 13.1123 56.1352 13.234 56.2119 13.234C56.2833 13.234 56.3337 12.9917 56.9962 12.6994C57.0897 12.6578 56.3337 10.5373 56.7988 8.32625C57.2671 6.10897 58.1124 4.51049 59.1172 3.51625C59.7441 2.89641 61.0566 1.52985 63.4054 0.736328C63.4054 0.736328 63.3834 1.28337 63.1408 1.56937C62.9014 1.85537 62.9025 1.94481 62.9025 2.26825C62.9025 2.79657 63.1881 2.58649 63.6564 2.79969C64.3221 3.09921 64.6486 3.74193 64.6486 3.77625C64.6486 3.80953 64.6255 3.83137 64.615 3.99777C64.6024 4.16417 64.7946 4.42001 64.8156 4.46265C64.8387 4.50841 64.8943 4.57497 64.7946 4.58641C64.7925 4.58641 64.7914 4.58641 64.7904 4.58641C64.6812 4.58641 64.1331 4.10905 64.1331 4.10905C64.1331 4.10905 63.9094 4.16417 64.089 4.36385C64.2685 4.56353 65.2303 5.27489 65.2639 5.37265C65.2965 5.47249 65.5663 6.16097 65.2524 6.72985L63.3246 6.74753ZM42.1965 20.903C42.0201 20.332 41.7051 19.8328 41.6053 19.031C41.4888 18.1178 41.5276 17.1694 41.577 16.9738C41.0499 18.3747 41.0341 19.1246 41.1675 19.7142C41.3292 20.411 41.6473 20.9102 41.7618 21.5374C41.7964 21.7318 41.9109 22.1666 41.9287 22.6242C41.914 22.7063 41.913 22.7375 41.9161 22.7375C41.9203 22.7375 41.9308 22.6866 41.9287 22.6242C42.0222 22.3257 42.3708 21.4531 42.1965 20.903ZM59.9877 16.4174C59.9877 16.4174 59.9635 17.8506 59.7924 18.0939C59.6212 18.3373 59.5225 18.7502 59.595 19.2358C59.6653 19.6997 59.8701 20.4308 59.8879 20.4953C59.8711 20.4318 59.68 19.7049 59.9142 18.823C60.1599 17.8994 60.037 16.6847 59.9877 16.4174ZM60.7237 15.1788C60.9033 16.0971 60.8707 18.6295 60.8707 18.6295C60.8707 18.6295 61.3999 16.796 61.1416 15.5178C60.919 14.4248 60.1599 13.6958 60.1599 13.6958C60.1599 13.6958 60.6576 14.8418 60.7237 15.1788ZM61.0177 12.2387C61.4356 12.9667 61.7307 14.4248 61.5564 14.8616C61.5364 14.9136 61.5301 14.9375 61.5343 14.9375C61.5616 14.9375 62.1391 13.5918 61.5333 12.4561C60.9075 11.284 60.8928 10.7578 60.9337 10.5997C60.8749 10.7796 60.6492 11.5939 61.0177 12.2387ZM61.7821 9.55761C61.6351 9.37665 61.3233 8.98041 61.2193 8.71521C60.9999 8.15153 60.939 7.80625 60.9453 7.71889C60.9463 7.71161 60.9453 7.70849 60.9432 7.70849C60.9159 7.70849 60.7069 8.26801 60.9106 8.76305C61.1311 9.29865 61.5207 9.62417 61.6908 10.0121C61.863 10.401 61.8273 10.8774 61.8273 10.8774L61.9186 10.479C62.0257 9.92473 61.8714 9.69697 61.7821 9.55761ZM41.3575 37.0937C41.3575 37.1686 41.2452 37.1873 41.0782 37.2611C40.926 37.336 40.8325 37.4473 40.8325 37.596C40.8325 37.8186 40.926 38.0411 41.0782 38.3209C41.3754 38.8575 44.1862 43.6488 44.5264 44.1875C44.8824 43.4075 47.2638 39.3411 47.6376 38.7286C47.8822 38.3386 47.9568 38.0234 47.9568 37.7811C47.9568 37.5211 47.8822 37.3183 47.6554 37.2611C47.4885 37.206 47.3761 37.1686 47.3761 37.076C47.3761 37.0011 47.4885 36.9658 47.6754 36.9658C48.1615 36.9658 48.7621 37.0209 48.9112 37.0209C49.0236 37.0209 50.3749 36.9658 50.7319 36.9658C50.8621 36.9658 50.9755 37.0011 50.9755 37.076C50.9755 37.1686 50.88 37.2237 50.7319 37.2237C50.5261 37.2237 50.1681 37.2996 49.8688 37.4837C49.4929 37.7083 49.2892 37.9309 48.8755 38.4311C48.256 39.1737 45.63 43.5386 45.295 44.3373C45.0136 45.005 45.0136 45.5811 45.0136 46.1926V47.7911C45.0136 48.0865 45.0136 48.8675 45.0703 49.6475C45.1071 50.1862 45.2761 50.595 45.8389 50.6688C46.1004 50.7062 46.5141 50.7426 46.681 50.7426C46.7944 50.7426 46.8322 50.7978 46.8322 50.8539C46.8322 50.9475 46.7377 51.0026 46.5298 51.0026C45.4987 51.0026 44.3175 50.9475 44.2272 50.9475C44.1327 50.9475 42.9504 51.0026 42.3886 51.0026C42.1807 51.0026 42.0883 50.9642 42.0883 50.8539C42.0883 50.7978 42.1272 50.7426 42.2385 50.7426C42.4086 50.7426 42.6333 50.7062 42.7992 50.6688C43.1761 50.595 43.3462 50.1862 43.383 49.6475C43.4386 48.8675 43.4386 48.0865 43.4386 47.7911V46.1926C43.4386 45.1911 43.2496 44.7824 43.0071 44.2437C42.8748 43.9452 40.3642 39.8611 39.7069 38.896C39.2386 38.2096 38.7693 37.7437 38.4343 37.5211C38.1519 37.336 37.7949 37.2237 37.6258 37.2237L37.4389 37.0937C37.4389 37.0209 37.5166 36.9658 37.6825 36.9658C38.0406 36.9658 39.4455 37.0209 39.541 37.0209C39.6712 37.0209 40.3821 36.9658 41.115 36.9658C41.3218 36.9658 41.3575 37.0209 41.3575 37.0937ZM30.1855 51.2626C25.0479 51.2626 22.9101 47.3065 22.9101 43.965C22.9101 40.9583 25.1224 36.7026 30.2968 36.7026C34.5157 36.7026 37.6657 39.3411 37.6657 43.6675C37.6657 47.8265 34.7026 51.2626 30.1855 51.2626ZM30.1656 37.336C27.0355 37.336 24.6919 39.3796 24.6919 43.445C24.6919 47.7714 27.3159 50.5575 30.6906 50.5575C32.3779 50.5575 35.865 49.5924 35.865 44.1875C35.865 39.7301 33.1276 37.336 30.1656 37.336ZM23.6671 50.7426L23.8372 50.8539C23.8372 50.9642 23.7238 51.0026 23.3878 51.0026H22.0554C21.0054 51.0026 20.5381 50.9101 20.0509 50.649C19.2435 50.2226 18.5883 49.3116 17.5183 47.919C16.7308 46.8988 15.8499 45.6539 15.4771 45.1714C15.4005 45.0975 15.3459 45.0611 15.2335 45.0611C15.2335 45.0611 13.2574 45.0434 13.0873 45.0247C12.9204 45.007 12.8017 44.9925 12.8017 44.9925V44.1449L12.8049 44.1314L12.8427 44.121L12.849 44.122L12.9256 44.1875C13.2081 44.356 14.0701 44.485 14.8954 44.485C15.3459 44.485 15.8719 44.4288 16.2993 44.1324C16.9576 43.6873 17.4448 42.6837 17.4448 41.2724C17.4448 38.9511 16.2069 37.5596 14.2014 37.5596L10.9842 37.5305C10.2786 37.8622 9.86382 38.3178 9.05532 39.0801C8.58702 39.5273 5.32572 42.6837 4.93197 43.1475C5.42127 43.6873 9.31677 47.6788 10.0864 48.3839C11.6625 49.8316 11.9806 50.1301 12.8805 50.5024C13.3677 50.7062 13.9105 50.7426 14.0418 50.7426C14.173 50.7426 14.2864 50.779 14.2864 50.8539C14.2864 50.9475 14.193 51.0026 13.8748 51.0026H12.9172C12.3922 51.0026 12.0352 51.0026 11.6247 50.9642C10.6314 50.8726 10.1631 50.465 9.35667 49.8316C8.51247 49.1442 4.53822 44.8937 3.63837 43.7986H3.54387V45.6186C3.54387 47.399 3.54387 48.8675 3.63837 49.6475C3.69612 50.1862 3.80532 50.595 4.36917 50.6688C4.63167 50.7062 4.93197 50.7426 5.09997 50.7426C5.21232 50.7426 5.25012 50.7978 5.25012 50.8539C5.25012 50.9475 5.15667 51.0026 4.94982 51.0026C4.03212 51.0026 2.94327 50.9475 2.79522 50.9475C2.64507 50.9475 1.55727 51.0026 0.995518 51.0026C0.787618 51.0026 0.696268 50.9642 0.696268 50.8539C0.696268 50.7978 0.731968 50.7426 0.845368 50.7426C1.01337 50.7426 1.23807 50.7062 1.40712 50.6688C1.78302 50.595 1.87752 50.1862 1.95102 49.6475C2.04552 48.8675 2.04552 47.399 2.04552 45.6186V42.3478C2.04552 39.4534 2.04552 39.9547 2.00772 39.3619C1.96887 38.7317 1.81977 38.4322 1.20237 38.3032C1.05012 38.2668 0.731968 38.2481 0.562918 38.2481L0.413818 38.1368C0.413818 38.0266 0.506218 37.9881 0.714118 37.9881C1.55727 37.9881 2.66292 38.0442 2.77527 38.0442C2.86242 38.0442 3.19002 38.0297 3.56172 38.0151L3.54387 43.4626H3.62052C3.93762 43.1111 7.33122 39.6937 8.00637 38.9698C8.53032 38.4311 9.01857 37.9496 9.01857 37.6324C9.01857 37.4098 8.92512 37.2996 8.77497 37.2434L8.60487 37.0937C8.60487 37.0011 8.70042 36.9658 8.83167 36.9658C9.07422 36.9658 9.40392 36.9876 9.72942 37.0042C10.5012 37.0053 13.8108 36.9658 14.2948 36.9658C15.4771 36.9658 16.7308 37.076 17.7262 37.7811C18.1956 38.115 19.0188 39.026 19.0188 40.3062C19.0188 41.6811 18.4392 43.055 16.7518 44.5973C18.288 46.5462 19.5616 48.1978 20.6494 49.3501C21.6616 50.4067 22.4691 50.6116 22.9353 50.6854C23.2944 50.7426 23.5548 50.7426 23.6671 50.7426ZM51.7168 36.9658C52.0749 36.9658 53.4808 37.0209 53.5732 37.0209C53.7055 37.0209 54.4195 36.9658 55.1493 36.9658C55.3561 36.9658 55.3929 37.0209 55.3929 37.0937C55.3929 37.1686 55.2805 37.1873 55.1115 37.2611C54.9613 37.336 54.8679 37.4473 54.8679 37.596C54.8679 37.8186 54.9613 38.0411 55.1115 38.3209C55.4128 38.8575 58.2237 43.6488 58.5618 44.1875C58.9188 43.4075 61.2981 39.3411 61.675 38.7286C61.9176 38.3386 61.9911 38.0234 61.9911 37.7811C61.9911 37.5211 61.9176 37.3183 61.6918 37.2611C61.5228 37.206 61.4104 37.1686 61.4104 37.076C61.4104 37.0011 61.5228 36.9658 61.7107 36.9658C62.1979 36.9658 62.7985 37.0209 62.9476 37.0209C63.061 37.0209 64.4113 36.9658 64.7662 36.9658C64.8964 36.9658 65.0098 37.0011 65.0098 37.076C65.0098 37.1686 64.9174 37.2237 64.7662 37.2237C64.5604 37.2237 64.2055 37.2996 63.9021 37.4837C63.5283 37.7083 63.3225 37.9309 62.9119 38.4311C62.2924 39.1737 59.6674 43.5386 59.3293 44.3373C59.049 45.005 59.049 45.5811 59.049 46.1926V47.7911C59.049 48.0865 59.049 48.8675 59.1046 49.6475C59.1414 50.1862 59.3146 50.595 59.8743 50.6688C60.1357 50.7062 60.5473 50.7426 60.7174 50.7426C60.8287 50.7426 60.8686 50.7978 60.8686 50.8539C60.8686 50.9475 60.771 51.0026 60.5662 51.0026C59.5383 51.0026 58.357 50.9475 58.2615 50.9475C58.1691 50.9475 56.9868 51.0026 56.4261 51.0026C56.2182 51.0026 56.1247 50.9642 56.1247 50.8539C56.1247 50.7978 56.1625 50.7426 56.2749 50.7426C56.4418 50.7426 56.6676 50.7062 56.8356 50.6688C57.2115 50.595 57.3816 50.1862 57.4173 49.6475C57.474 48.8675 57.474 48.0865 57.474 47.7911V46.1926C57.474 45.1911 57.2871 44.7824 57.0424 44.2437C56.9122 43.9452 54.3985 39.8611 53.7423 38.896C53.2761 38.2096 52.8057 37.7437 52.4676 37.5211C52.1862 37.336 51.8313 37.2237 51.6633 37.2237L51.4743 37.0937C51.4743 37.0209 51.5488 36.9658 51.7168 36.9658Z" fill="white"/>
</svg>
